<svg id="Layer_1" height="50px" viewBox="0 0 75 75" width="50px" xmlns="http://www.w3.org/2000/svg" data-name="Layer 1"><path d="m50.51 62.25h-26.142a2.289 2.289 0 0 1 -2.268-2.028l-2.641-34.438a.75.75 0 0 1 1.5-.114l2.639 34.407a.782.782 0 0 0 .774.673h26.138a.8.8 0 0 0 .79-.7l2.623-34.38a.75.75 0 0 1 1.5.114l-2.63 34.407a2.3 2.3 0 0 1 -2.283 2.059z"/><path d="m54.279 26.477h-33.558a3.322 3.322 0 0 1 -3.321-3.318v-2.05a3.322 3.322 0 0 1 3.318-3.318h33.561a3.322 3.322 0 0 1 3.321 3.318v2.05a3.322 3.322 0 0 1 -3.321 3.318zm-33.558-7.186a1.82 1.82 0 0 0 -1.821 1.818v2.05a1.821 1.821 0 0 0 1.818 1.818h33.561a1.821 1.821 0 0 0 1.821-1.818v-2.05a1.82 1.82 0 0 0 -1.818-1.818z"/><path d="m44.18 19.291h-13.36a.75.75 0 0 1 -.75-.75v-2.784a3.01 3.01 0 0 1 3.007-3.007h8.846a3.01 3.01 0 0 1 3.007 3.007v2.784a.75.75 0 0 1 -.75.75zm-12.61-1.5h11.86v-2.034a1.509 1.509 0 0 0 -1.507-1.507h-8.846a1.509 1.509 0 0 0 -1.507 1.507z"/><path d="m44.735 55.6h-.049a.751.751 0 0 1 -.7-.8l1.606-24.514a.75.75 0 1 1 1.5.1l-1.609 24.514a.75.75 0 0 1 -.748.7z"/><path d="m37.439 55.6a.75.75 0 0 1 -.75-.75v-24.511a.75.75 0 1 1 1.5 0v24.515a.75.75 0 0 1 -.75.746z"/><path d="m30.143 55.6a.749.749 0 0 1 -.747-.7l-1.607-24.512a.75.75 0 1 1 1.5-.1l1.607 24.514a.753.753 0 0 1 -.7.8z"/></svg>